# xmcd
#
# Track frame offsets: 
#        150
#        12365
#        23446
#        34816
#        46207
#        56269
#        73959
#        86529
#        95864
#        108033
#        125143
#        138712
#
# Disc length: 2027 seconds
#
# Revision: 0
# Processed by: cddbd v1.5.2PL0 Copyright (c) Steve Scherf et al.
# Submitted via: ExactAudioCopy v1.0b3
#
DISCID=a107e90c
DTITLE=Dottie Jack - Lighter Shade of Blue
DYEAR=2012
DGENRE=Country
TTITLE0=Kissing My Pillow
TTITLE1=Because It's You
TTITLE2=My Ears Should Burn
TTITLE3=Our House Is Not a Home
TTITLE4=I'll Run Right Back to You
TTITLE5=Baby, That's Cold
TTITLE6=I Heard You Asked About Me
TTITLE7=A Lighter Shade of Blue
TTITLE8=Nobody Wins
TTITLE9=I Sure Learned a Lot From You
TTITLE10=When the Tingle Becomes a Chill
TTITLE11=One For You, One For Me
EXTD=
EXTT0=
EXTT1=
EXTT2=
EXTT3=
EXTT4=
EXTT5=
EXTT6=
EXTT7=
EXTT8=
EXTT9=
EXTT10=
EXTT11=
PLAYORDER=
